<svg width="262" height="281" viewBox="0 0 262 281" fill="none" xmlns="http://www.w3.org/2000/svg">
<g clip-path="url(#clip0_1062_902)">
<g filter="url(#filter0_d_1062_902)">
<path d="M212.665 236.859H55.7235C53.2863 236.859 51.2922 234.867 51.2922 232.433V121.435C51.2922 119.001 53.2863 117.01 55.7235 117.01H212.665C215.102 117.01 217.096 119.001 217.096 121.435V232.433C217.096 234.867 215.102 236.859 212.665 236.859Z" fill="#E6F4FF"/>
<path d="M217.65 119.899H50.7383V93.9009C50.7383 87.3737 56.0928 82.0266 62.6289 82.0266H205.76C212.296 82.0266 217.65 87.3737 217.65 93.9009V119.899V119.899Z" fill="#044476"/>
</g>
<path d="M76.0336 91.8966V67.7793C76.0336 64.3866 78.8031 61.584 82.2374 61.584H82.5697C85.967 61.584 88.7735 64.3497 88.7735 67.7793V91.8966C88.7735 95.2892 86.004 98.0919 82.5697 98.0919H82.2374C78.8401 98.0919 76.0336 95.3261 76.0336 91.8966Z" fill="#005BA0"/>
<path d="M110.561 91.5278V67.4105C110.561 64.0178 113.33 61.2152 116.764 61.2152H117.097C120.494 61.2152 123.301 63.981 123.301 67.4105V91.5278C123.301 94.9205 120.531 97.7231 117.097 97.7231H116.764C113.367 97.7231 110.561 94.9573 110.561 91.5278Z" fill="#005BA0"/>
<path d="M145.088 91.8966V67.7793C145.088 64.3866 147.857 61.584 151.292 61.584H151.624C155.021 61.584 157.828 64.3497 157.828 67.7793V91.8966C157.828 95.2892 155.058 98.0919 151.624 98.0919H151.292C147.857 98.0919 145.088 95.3261 145.088 91.8966Z" fill="#005BA0"/>
<path d="M179.615 92.2654V68.148C179.615 64.7554 182.385 61.9528 185.819 61.9528H186.151C189.548 61.9528 192.355 64.7185 192.355 68.148V92.2654C192.355 95.658 189.585 98.4606 186.151 98.4606H185.819C182.385 98.4606 179.615 95.6949 179.615 92.2654Z" fill="#005BA0"/>
<path d="M81.4619 131.539H62.6289V144.778H81.4619V131.539Z" fill="#BDD3E4"/>
<path d="M81.4619 151.379H62.6289V164.617H81.4619V151.379Z" fill="#BDD3E4"/>
<path d="M81.4619 171.218H62.6289V184.457H81.4619V171.218Z" fill="#BDD3E4"/>
<path d="M81.4619 191.058H62.6289V204.297H81.4619V191.058Z" fill="#BDD3E4"/>
<path d="M143.574 131.539H124.741V144.778H143.574V131.539Z" fill="#BDD3E4"/>
<path d="M143.574 151.379H124.741V164.617H143.574V151.379Z" fill="#BDD3E4"/>
<path d="M143.574 171.218H124.741V184.457H143.574V171.218Z" fill="#BDD3E4"/>
<path d="M143.574 191.058H124.741V204.297H143.574V191.058Z" fill="#BDD3E4"/>
<path d="M174.556 131.539H155.723V144.778H174.556V131.539Z" fill="#BDD3E4"/>
<path d="M174.556 151.379H155.723V164.617H174.556V151.379Z" fill="#BDD3E4"/>
<path d="M174.556 171.218H155.723V184.457H174.556V171.218Z" fill="#BDD3E4"/>
<path d="M174.556 191.058H155.723V204.297H174.556V191.058Z" fill="#BDD3E4"/>
<path d="M205.575 131.539H186.742V144.778H205.575V131.539Z" fill="#BDD3E4"/>
<path d="M205.575 151.379H186.742V164.617H205.575V151.379Z" fill="#BDD3E4"/>
<path d="M205.575 171.218H186.742V184.457H205.575V171.218Z" fill="#BDD3E4"/>
<path d="M205.575 191.058H186.742V204.297H205.575V191.058Z" fill="#BDD3E4"/>
<path d="M81.4619 211.451H62.6289V224.689H81.4619V211.451Z" fill="#BDD3E4"/>
<path d="M112.296 131.539H93.4633V144.778H112.296V131.539Z" fill="#BDD3E4"/>
<path d="M112.296 151.379H93.4633V164.617H112.296V151.379Z" fill="#BDD3E4"/>
<path d="M112.296 171.218H93.4633V184.457H112.296V171.218Z" fill="#BDD3E4"/>
<path d="M112.296 191.058H93.4633V204.297H112.296V191.058Z" fill="#BDD3E4"/>
<path d="M112.296 211.451H93.4633V224.689H112.296V211.451Z" fill="#BDD3E4"/>
<path d="M188.736 174.98L194.755 182.65C194.977 183.093 197.414 174.168 209.489 164.212" stroke="#0D793D" stroke-width="3" stroke-miterlimit="10"/>
<path d="M60.1548 30.2757C60.4502 30.8657 60.7456 31.4189 61.0411 31.972L61.8535 33.5577C62.3704 34.5534 62.8874 35.5122 63.4044 36.3972C64.4384 38.1304 65.5462 39.5317 66.7279 40.638C66.8756 40.7855 67.0233 40.9331 67.171 41.0437C67.3187 41.1543 67.5033 41.3018 67.6511 41.4125C67.9834 41.6706 68.3158 41.8918 68.722 42.15L68.9804 42.3344C69.0912 42.4081 69.1651 42.445 69.2759 42.4819C69.4605 42.5925 69.6821 42.7031 69.8667 42.8138C70.3098 42.9981 70.716 43.2563 71.1961 43.4407C72.1193 43.8832 73.1163 44.2151 74.1872 44.6207C74.7411 44.8051 75.295 44.9895 75.8489 45.2107C76.4398 45.3951 77.0306 45.6164 77.6584 45.9114L77.6953 46.2802L75.9597 46.5014C75.3689 46.5383 74.778 46.5752 74.1872 46.6121C73.0055 46.6121 71.8239 46.5383 70.6422 46.317C70.0513 46.2433 69.4974 46.0589 68.9066 45.9114C68.6112 45.8376 68.3527 45.727 68.0573 45.6164C67.9096 45.5795 67.7618 45.5058 67.6511 45.4689L67.2449 45.2845C66.137 44.8051 65.14 44.1413 64.2168 43.33C62.4443 41.6706 61.2626 39.5317 60.561 37.2454C60.2286 36.1022 59.9702 34.959 59.8224 33.779C59.7117 32.5989 59.6747 31.4189 59.7855 30.2388L60.1548 30.2757Z" fill="#E64525"/>
<path d="M201.107 27.2887C200.959 27.51 200.774 27.6943 200.59 27.8787C200.405 28.0631 200.22 28.2475 200.036 28.395C199.63 28.7269 199.223 29.0219 198.78 29.3169C197.894 29.8701 196.934 30.2757 195.937 30.5338C194.903 30.8289 193.832 30.9395 192.724 30.9026C192.429 30.9026 192.17 30.8657 191.875 30.8289C191.579 30.792 191.321 30.7551 191.026 30.6814C190.472 30.5338 189.918 30.3863 189.364 30.1651C189.105 30.0545 188.81 29.9069 188.551 29.7963C188.293 29.6488 188.034 29.5382 187.776 29.3538C187.517 29.1694 187.296 29.0219 187.037 28.8375C186.816 28.6531 186.557 28.4688 186.373 28.2475L185.782 27.6206C185.597 27.3993 185.449 27.1412 185.265 26.9199C185.08 26.6987 184.969 26.4405 184.822 26.1824C184.674 25.9243 184.563 25.703 184.452 25.4449C183.603 23.3798 183.455 21.2409 184.046 19.2496L184.342 19.1758C184.452 19.6184 184.563 20.0609 184.711 20.5034C184.859 20.9459 185.006 21.3516 185.154 21.7941C185.339 22.1997 185.486 22.6422 185.708 23.011C185.819 23.1954 185.893 23.4167 186.04 23.601L186.41 24.1542C186.927 24.8917 187.48 25.5924 188.182 26.1455C188.884 26.6987 189.659 27.1781 190.472 27.51C192.096 28.2106 193.943 28.3581 195.752 28.2475C196.638 28.1737 197.562 28.0262 198.448 27.805C199.334 27.6206 200.22 27.3625 201.033 27.0306L201.107 27.2887Z" fill="#0D793D"/>
<path d="M8.75182 170.591C9.49037 172.03 10.0443 173.32 10.6351 174.5C11.189 175.68 11.7799 176.713 12.4076 177.524C13.0354 178.372 13.737 178.999 14.7341 179.589C15.7311 180.179 17.0236 180.622 18.5745 181.175L18.6114 181.396C18.2422 181.433 17.9098 181.507 17.5405 181.544C17.1713 181.544 16.802 181.617 16.4327 181.617H15.8788C15.6942 181.617 15.5095 181.581 15.3249 181.544C14.9556 181.507 14.5863 181.396 14.254 181.322C12.8138 180.917 11.5214 180.105 10.5982 178.889C9.71193 177.709 9.15802 176.307 8.82567 174.869C8.49333 173.431 8.38254 171.993 8.49333 170.554L8.75182 170.591Z" fill="#FFE600"/>
<path d="M245.9 151.6C247.118 153.923 248.005 156.025 248.965 157.943C249.888 159.86 250.848 161.52 251.882 162.884C252.916 164.249 254.061 165.281 255.685 166.24C256.092 166.461 256.535 166.719 257.015 166.904L257.716 167.236L258.492 167.531L258.898 167.715C259.046 167.752 259.157 167.789 259.304 167.862C259.563 167.973 259.858 168.047 260.154 168.157C260.449 168.268 260.744 168.342 261.04 168.452C261.335 168.563 261.631 168.674 261.963 168.821L262.037 169.19C261.446 169.264 260.855 169.374 260.264 169.448L259.378 169.522L258.935 169.559H258.492L257.606 169.522C257.31 169.485 257.015 169.448 256.719 169.411L256.276 169.374C256.129 169.338 255.981 169.301 255.833 169.301C255.538 169.227 255.242 169.19 254.947 169.116C253.802 168.784 252.657 168.305 251.66 167.641C250.626 166.977 249.74 166.129 249.002 165.17C247.524 163.253 246.675 160.967 246.121 158.643C245.863 157.5 245.678 156.32 245.604 155.14C245.53 153.96 245.493 152.78 245.604 151.6H245.9Z" fill="#3D3594"/>
<path d="M109.564 1.14089e-05C109.711 0.221271 109.822 0.442531 109.933 0.663791C110.044 0.885051 110.118 1.10631 110.228 1.36445C110.413 1.84384 110.524 2.28636 110.635 2.76576C110.856 3.72455 110.93 4.72022 110.856 5.71589C110.745 7.70723 110.118 9.77232 108.751 11.5793C108.567 11.8005 108.382 12.0218 108.197 12.2062C108.013 12.3906 107.791 12.6118 107.606 12.7962L106.942 13.3125C106.72 13.4969 106.462 13.6444 106.203 13.7919C105.206 14.345 104.098 14.7138 103.027 14.8244C100.849 15.0088 98.8177 14.4557 97.2299 13.2018L97.2668 12.9437C97.7099 12.9806 98.153 13.0543 98.5592 13.0543H99.2239H99.5563L99.8886 13.0175L100.553 12.9806C100.775 12.9437 100.996 12.9437 101.181 12.9068C101.403 12.87 101.624 12.8331 101.809 12.7962C102.03 12.7593 102.215 12.6856 102.437 12.6487C104.061 12.1693 105.575 11.1736 106.573 9.8092C107.643 8.44476 108.308 6.82219 108.714 5.16274C108.936 4.31458 109.047 3.46642 109.157 2.58138C109.268 1.73321 109.305 0.848174 109.305 -0.0368652L109.564 1.14089e-05Z" fill="#F47518"/>
<path d="M33.4932 55.4993V79.1004" stroke="#AF9E05" stroke-miterlimit="10"/>
<path d="M45.4945 67.2999H21.4917" stroke="#AF9E05" stroke-miterlimit="10"/>
<path d="M41.8757 58.9658L25.1476 75.6709" stroke="#AF9E05" stroke-miterlimit="10"/>
<path d="M41.9864 75.7815L25.0367 58.8182" stroke="#AF9E05" stroke-miterlimit="10"/>
<path d="M33.4931 71.5406C35.8385 71.5406 37.7398 69.642 37.7398 67.2998C37.7398 64.9577 35.8385 63.059 33.4931 63.059C31.1478 63.059 29.2465 64.9577 29.2465 67.2998C29.2465 69.642 31.1478 71.5406 33.4931 71.5406Z" fill="white"/>
<path d="M144.276 25.998V49.5991" stroke="#AF9E05" stroke-miterlimit="10"/>
<path d="M156.277 37.7986H132.274" stroke="#AF9E05" stroke-miterlimit="10"/>
<path d="M152.658 29.4645L135.93 46.1696" stroke="#AF9E05" stroke-miterlimit="10"/>
<path d="M152.769 46.2802L135.819 29.317" stroke="#AF9E05" stroke-miterlimit="10"/>
<path d="M144.275 42.0394C146.621 42.0394 148.522 40.1407 148.522 37.7986C148.522 35.4564 146.621 33.5577 144.275 33.5577C141.93 33.5577 140.029 35.4564 140.029 37.7986C140.029 40.1407 141.93 42.0394 144.275 42.0394Z" fill="white"/>
<path d="M249.149 92.0072V115.608" stroke="#AF9E05" stroke-miterlimit="10"/>
<path d="M261.151 103.808H237.148" stroke="#AF9E05" stroke-miterlimit="10"/>
<path d="M257.532 95.4736L240.804 112.179" stroke="#AF9E05" stroke-miterlimit="10"/>
<path d="M257.643 112.289L240.693 95.3261" stroke="#AF9E05" stroke-miterlimit="10"/>
<path d="M249.149 108.049C251.495 108.049 253.396 106.15 253.396 103.808C253.396 101.466 251.495 99.5669 249.149 99.5669C246.804 99.5669 244.903 101.466 244.903 103.808C244.903 106.15 246.804 108.049 249.149 108.049Z" fill="white"/>
<path d="M12.703 94.0723C18.5006 93.3348 24.0767 98.2025 22.1564 102.886C20.347 107.2 15.8049 104.988 12.6661 103.107C10.672 101.927 12.1122 100.341 14.4755 102.554C16.3958 104.361 18.9438 106.869 17.3559 109.376C15.0664 113.027 9.82269 109.266 9.78576 107.754C9.74883 106.242 13.6262 108.934 12.1122 112.769C11.2998 114.871 7.97632 112.658 7.97632 112.658" stroke="#231F20" stroke-miterlimit="10"/>
<path d="M243.721 31.0501C232.864 29.7963 222.672 39.3474 226.55 48.2346C230.132 56.4581 238.514 52.0698 244.312 48.3821C248.005 46.0589 245.161 43.0719 240.878 47.3865C237.406 50.8898 232.79 55.7944 235.892 60.5883C240.397 67.558 249.962 60.1458 249.962 57.2325C249.962 54.3193 242.872 59.6295 245.9 66.9311C247.561 70.9138 253.618 66.5623 253.618 66.5623" stroke="#231F20" stroke-miterlimit="10"/>
<path d="M29.8257 167.621C30.3057 165.445 30.8596 163.306 31.2658 161.093C31.4874 159.913 31.5243 158.733 31.4874 157.553C31.4135 155.82 30.4903 154.456 29.161 153.386C27.7208 152.243 26.0591 151.432 24.3973 150.62C23.4003 150.141 22.3663 149.735 21.3693 149.256C21.2216 149.182 21.1108 149.145 21 148.998C21.6647 149.182 22.2925 149.367 22.9572 149.477C24.8774 149.883 26.7976 150.325 28.7548 150.62C31.5982 151.026 33.9246 150.104 35.5494 147.633C36.0295 146.896 36.5095 146.158 36.8788 145.384C37.6912 143.761 38.4297 142.065 39.2052 140.406C39.2791 140.258 39.316 140.148 39.3899 140C39.4268 140 39.4268 140 39.4637 140.037C39.3899 140.332 39.316 140.627 39.2421 140.922C38.7621 143.098 38.2082 145.273 37.8389 147.486C37.4696 149.662 37.6912 151.837 39.4268 153.46C40.1653 154.161 41.0147 154.824 41.9378 155.341C43.9319 156.373 45.9629 157.295 47.9939 158.254C48.1416 158.328 48.2894 158.401 48.4001 158.512C47.9939 158.401 47.5877 158.291 47.1446 158.18C45.0767 157.738 43.0457 157.221 40.9777 156.889C39.316 156.594 37.6543 156.668 36.1033 157.553C35.0693 158.143 34.3308 158.991 33.6661 159.95C32.3736 161.868 31.4505 164.007 30.4903 166.109C30.2688 166.699 30.0472 167.178 29.8257 167.621Z" fill="#F47518"/>
<path d="M232.237 254.375C232.347 252.937 232.495 251.499 232.495 250.06C232.532 248.917 232.458 247.737 232.31 246.594C232.089 244.972 231.129 243.791 229.689 242.98C228.064 242.095 226.291 241.616 224.519 241.136C223.78 240.952 223.079 240.768 222.34 240.509C223.3 240.583 224.223 240.694 225.183 240.731C226.697 240.768 228.211 240.804 229.689 240.694C231.83 240.546 233.27 239.329 234.157 237.412C235.043 235.494 235.523 233.466 236.04 231.438C236.114 231.18 236.151 230.922 236.299 230.663C236.262 231.217 236.188 231.733 236.151 232.286C236.077 233.982 235.966 235.679 236.003 237.375C236.04 239.809 237.259 241.542 239.511 242.538C241.505 243.423 243.61 243.902 245.715 244.455C245.863 244.492 245.974 244.529 246.121 244.64C245.198 244.566 244.275 244.455 243.352 244.418C241.616 244.308 239.881 244.197 238.145 244.529C236.631 244.824 235.523 245.635 234.748 246.963C233.824 248.512 233.381 250.245 232.901 251.941C232.68 252.753 232.458 253.601 232.273 254.412C232.273 254.375 232.237 254.375 232.237 254.375Z" fill="#F47518"/>
<path d="M222.525 257.805C222.414 256.846 222.34 255.887 222.192 254.928C222.008 253.933 221.417 253.232 220.42 253.011C219.423 252.753 218.426 252.605 217.65 252.458C218.426 252.384 219.386 252.31 220.309 252.162C221.491 251.978 222.192 251.277 222.451 250.097C222.635 249.175 222.783 248.254 222.968 247.369C223.005 247.959 223.042 248.585 223.078 249.175C223.226 251.388 224.002 252.236 226.18 252.568C226.771 252.642 227.362 252.753 227.916 252.826C226.956 252.937 225.996 253.011 225.036 253.158C224.002 253.306 223.337 253.969 223.078 254.965C222.894 255.74 222.783 256.551 222.635 257.362C222.561 257.51 222.561 257.657 222.525 257.805Z" fill="#F47518"/>
<path d="M33.6039 236.342C30.8343 231.843 28.0648 227.344 25.2214 222.882C24.1135 221.186 23.8181 219.932 25.5906 218.457C28.7295 215.765 29.8742 211.967 30.8343 207.91C34.2686 193.381 31.019 179.515 26.1815 165.76C25.4429 163.622 25.9968 162.81 28.1386 162.995C31.6467 163.29 34.6378 164.544 36.595 167.826C41.1001 175.312 44.8298 183.092 47.0824 191.537C47.784 194.155 48.818 194.598 51.2552 193.16C58.0129 189.103 64.6968 184.973 71.4545 180.917C76.8828 177.672 81.6464 179.294 83.8251 185.416C86.8901 193.934 89.6228 202.563 92.5031 211.156C93.2786 213.442 93.7956 215.876 94.7926 218.088C97.9314 225.058 94.3864 234.941 88.2934 238.223C81.9419 241.653 75.8858 245.562 69.7927 249.434C65.8415 251.941 61.5949 252.568 56.9789 252.347C52.8061 252.162 48.6333 252.457 44.4605 252.31C43.6112 252.273 42.4665 251.314 41.9125 250.503" fill="#FFE7D6"/>
<path d="M67.2819 183.424C65.4725 184.531 63.7 185.6 61.8905 186.706C58.3455 188.882 54.8005 191.021 51.2554 193.16C48.8182 194.598 47.7843 194.155 47.0826 191.537C44.867 183.092 41.1004 175.312 36.5953 167.826C34.6381 164.544 31.647 163.29 28.1389 162.995C25.9971 162.81 25.4063 163.622 26.1817 165.76C31.0192 179.515 34.2688 193.381 30.8346 207.91C29.8745 211.967 28.7297 215.765 25.5909 218.457C23.8553 219.932 24.1507 221.186 25.2216 222.882C25.2216 222.882 35.0443 238.186 44.1284 252.273C44.2762 252.273 44.4608 252.273 44.4608 252.273C48.6336 252.421 52.8064 252.126 56.9792 252.31C61.5951 252.531 65.8418 251.904 69.793 249.397C75.886 245.525 81.9421 241.616 88.2936 238.186C94.3867 234.904 97.8948 225.021 94.7929 218.052C93.7958 215.839 93.2788 213.442 92.5034 211.119C89.623 202.526 86.8535 193.897 83.8254 185.379C81.6467 179.257 76.8831 177.635 71.4547 180.88C70.0515 181.765 68.6482 182.576 67.2819 183.424Z" stroke="#F47518" stroke-width="2" stroke-miterlimit="10"/>
<path d="M50.3321 268.425L30.8344 280.484L0.516968 231.622L22.4888 218.015L51.2922 264.405C52.1415 265.77 51.6984 267.577 50.3321 268.425Z" fill="#FFE7D6"/>
<path d="M34.2686 262.377C36.3366 261.05 39.2538 261.713 40.6201 263.779C41.9864 265.881 41.3587 268.794 39.2538 270.084C37.1859 271.375 34.5271 270.748 33.1608 268.72C31.7206 266.618 32.2376 263.668 34.2686 262.377Z" fill="#F47518"/>
<path d="M50.3321 268.425L30.8344 280.484L0.516968 231.622L22.4888 218.015L51.2922 264.405C52.1415 265.77 51.6984 267.577 50.3321 268.425Z" stroke="#F47518" stroke-width="2" stroke-miterlimit="10"/>
</g>
<defs>
<filter id="filter0_d_1062_902" x="46.7383" y="79.0266" width="180.912" height="168.832" filterUnits="userSpaceOnUse" color-interpolation-filters="sRGB">
<feFlood flood-opacity="0" result="BackgroundImageFix"/>
<feColorMatrix in="SourceAlpha" type="matrix" values="0 0 0 0 0 0 0 0 0 0 0 0 0 0 0 0 0 0 127 0" result="hardAlpha"/>
<feOffset dx="3" dy="4"/>
<feGaussianBlur stdDeviation="3.5"/>
<feComposite in2="hardAlpha" operator="out"/>
<feColorMatrix type="matrix" values="0 0 0 0 0.112977 0 0 0 0 0.365535 0 0 0 0 0.491815 0 0 0 0.2 0"/>
<feBlend mode="normal" in2="BackgroundImageFix" result="effect1_dropShadow_1062_902"/>
<feBlend mode="normal" in="SourceGraphic" in2="effect1_dropShadow_1062_902" result="shape"/>
</filter>
<clipPath id="clip0_1062_902">
<rect width="262" height="281" fill="white"/>
</clipPath>
</defs>
</svg>
