<svg width="366" height="324" viewBox="0 0 366 324" fill="none" xmlns="http://www.w3.org/2000/svg">
<path d="M183 265C257.558 265 318 254.031 318 240.5C318 226.969 257.558 216 183 216C108.442 216 48 226.969 48 240.5C48 254.031 108.442 265 183 265Z" fill="#FFE0C9"/>
<path d="M280.145 70.2172L260.151 89.7772" stroke="#666666" stroke-width="3" stroke-miterlimit="10"/>
<path d="M288.681 91.2668L259.242 90.708" stroke="#666666" stroke-width="3" stroke-miterlimit="10"/>
<path d="M258.311 89.7997L258.87 60.3609" stroke="#666666" stroke-width="3" stroke-miterlimit="10"/>
<path d="M263.942 98.9282C271.052 98.841 276.746 93.0061 276.658 85.8957C276.571 78.7853 270.736 73.0918 263.626 73.179C256.516 73.2662 250.822 79.101 250.909 86.2115C250.997 93.3219 256.831 99.0153 263.942 98.9282Z" fill="white"/>
<path d="M281.48 131.261L281.398 131.221L281.397 131.099L281.193 131.102L193.94 83.7061C186.853 80.0931 178.386 80.1969 171.39 83.9827L79.8707 133.571L79.9119 133.611L81.1786 236.91C81.214 239.796 83.5625 242.085 86.4525 242.05L277.518 239.707C280.408 239.671 282.699 237.326 282.664 234.439L281.399 131.303L281.48 131.261Z" fill="#7D3602"/>
<g filter="url(#filter0_d_1062_990)">
<path d="M259.533 213.905L103.84 215.815C101.438 215.844 99.4604 213.917 99.431 211.518L97.9923 94.1937C97.9629 91.7952 99.8928 89.8199 102.294 89.7904L257.988 87.8812C260.389 87.8518 262.367 89.7791 262.396 92.1777L263.834 209.462C263.905 211.9 261.934 213.876 259.533 213.905Z" fill="#F9FCFF"/>
<path d="M164.461 103.259L113.988 103.878L114.078 111.195L164.551 110.576L164.461 103.259Z" fill="#BDD3E4"/>
<path d="M150.349 114.41L114.123 114.854L114.192 120.545L150.419 120.101L150.349 114.41Z" fill="#BDD3E4"/>
</g>
<path d="M281.439 131.221L281.437 131.099L281.193 131.102L281.439 131.221Z" fill="#FB964C"/>
<path d="M183.142 185.893L79.9521 133.61L81.2189 236.909C81.2543 239.796 83.6028 242.085 86.4928 242.049L277.558 239.706C280.448 239.671 282.74 237.325 282.704 234.439L281.439 131.302L183.142 185.893Z" fill="#FB964C"/>
<path d="M195.705 118.811L167.416 119.158L153.551 143.805L168.016 168.104L196.305 167.757L210.17 143.11L195.705 118.811Z" fill="#DC2400"/>
<path d="M185.665 126.7L184.378 154.608L179.575 154.667L177.605 126.799L185.665 126.7Z" fill="white"/>
<path d="M179.471 156.132L184.559 156.069L184.609 160.135L179.521 160.197" fill="white"/>
<defs>
<filter id="filter0_d_1062_990" x="91.9919" y="75.8809" width="185.844" height="147.934" filterUnits="userSpaceOnUse" color-interpolation-filters="sRGB">
<feFlood flood-opacity="0" result="BackgroundImageFix"/>
<feColorMatrix in="SourceAlpha" type="matrix" values="0 0 0 0 0 0 0 0 0 0 0 0 0 0 0 0 0 0 127 0" result="hardAlpha"/>
<feOffset dx="4" dy="-2"/>
<feGaussianBlur stdDeviation="5"/>
<feComposite in2="hardAlpha" operator="out"/>
<feColorMatrix type="matrix" values="0 0 0 0 0.608501 0 0 0 0 0.6649 0 0 0 0 0.708481 0 0 0 0.4 0"/>
<feBlend mode="multiply" in2="BackgroundImageFix" result="effect1_dropShadow_1062_990"/>
<feBlend mode="normal" in="SourceGraphic" in2="effect1_dropShadow_1062_990" result="shape"/>
</filter>
</defs>
</svg>
