<svg width="372" height="278" viewBox="0 0 372 278" fill="none" xmlns="http://www.w3.org/2000/svg">
<g filter="url(#filter0_d_1062_1391)">
<path d="M40.8982 193.18C55.7537 193.18 67.7964 180.724 67.7964 165.359C67.7964 149.995 55.7537 137.539 40.8982 137.539C26.0427 137.539 13.9999 149.995 13.9999 165.359C13.9999 180.724 26.0427 193.18 40.8982 193.18Z" fill="#DAEAF7"/>
<path d="M310.343 193.18C325.199 193.18 337.241 180.724 337.241 165.359C337.241 149.995 325.199 137.539 310.343 137.539C295.488 137.539 283.445 149.995 283.445 165.359C283.445 180.724 295.488 193.18 310.343 193.18Z" fill="#DAEAF7"/>
<path d="M78.8333 98.4187C93.6888 98.4187 105.732 85.9632 105.732 70.5984C105.732 55.2337 93.6888 42.7781 78.8333 42.7781C63.9778 42.7781 51.9351 55.2337 51.9351 70.5984C51.9351 85.9632 63.9778 98.4187 78.8333 98.4187Z" fill="#DAEAF7"/>
<path d="M271.747 98.4187C286.603 98.4187 298.645 85.9632 298.645 70.5984C298.645 55.2337 286.603 42.7781 271.747 42.7781C256.892 42.7781 244.849 55.2337 244.849 70.5984C244.849 85.9632 256.892 98.4187 271.747 98.4187Z" fill="#DAEAF7"/>
<path d="M51.2742 119.961C55.1067 119.961 58.2135 116.855 58.2135 113.023C58.2135 109.191 55.1067 106.084 51.2742 106.084C47.4417 106.084 44.3348 109.191 44.3348 113.023C44.3348 116.855 47.4417 119.961 51.2742 119.961Z" fill="#DAEAF7"/>
<path d="M124.567 47.4698C128.399 47.4698 131.506 44.3633 131.506 40.5313C131.506 36.6992 128.399 33.5927 124.567 33.5927C120.734 33.5927 117.628 36.6992 117.628 40.5313C117.628 44.3633 120.734 47.4698 124.567 47.4698Z" fill="#DAEAF7"/>
<path d="M175.574 66.6407C190.429 66.6407 202.472 54.1851 202.472 38.8203C202.472 23.4556 190.429 11 175.574 11C160.718 11 148.676 23.4556 148.676 38.8203C148.676 54.1851 160.718 66.6407 175.574 66.6407Z" fill="#DAEAF7"/>
<path d="M228.261 47.7342C232.093 47.7342 235.2 44.6277 235.2 40.7956C235.2 36.9636 232.093 33.8571 228.261 33.8571C224.428 33.8571 221.321 36.9636 221.321 40.7956C221.321 44.6277 224.428 47.7342 228.261 47.7342Z" fill="#DAEAF7"/>
<path d="M300.694 120.49C304.527 120.49 307.633 117.383 307.633 113.551C307.633 109.719 304.527 106.613 300.694 106.613C296.862 106.613 293.755 109.719 293.755 113.551C293.755 117.383 296.862 120.49 300.694 120.49Z" fill="#DAEAF7"/>
<path d="M303.139 218.555C306.972 218.555 310.079 215.448 310.079 211.616C310.079 207.784 306.972 204.678 303.139 204.678C299.307 204.678 296.2 207.784 296.2 211.616C296.2 215.448 299.307 218.555 303.139 218.555Z" fill="#DAEAF7"/>
<path d="M49.6881 221C53.5206 221 56.6274 217.893 56.6274 214.061C56.6274 210.229 53.5206 207.123 49.6881 207.123C45.8556 207.123 42.7487 210.229 42.7487 214.061C42.7487 217.893 45.8556 221 49.6881 221Z" fill="#DAEAF7"/>
</g>
<path d="M78.8333 73.9025C80.6583 73.9025 82.1377 72.4232 82.1377 70.5984C82.1377 68.7736 80.6583 67.2943 78.8333 67.2943C77.0083 67.2943 75.5288 68.7736 75.5288 70.5984C75.5288 72.4232 77.0083 73.9025 78.8333 73.9025Z" fill="#0063B1"/>
<path d="M84.0895 71.1729C85.1739 61.0113 83.699 52.5226 80.7954 52.2128C77.8918 51.903 74.6589 59.8895 73.5745 70.0511C72.4902 80.2127 73.965 88.7014 76.8687 89.0112C79.7723 89.321 83.0052 81.3345 84.0895 71.1729Z" stroke="#231F20" stroke-miterlimit="10"/>
<path d="M90.3177 85.113C92.6073 83.3007 89.3209 75.3361 82.9773 67.3236C76.6338 59.311 69.6353 54.2846 67.3457 56.0968C65.0561 57.9091 68.3425 65.8737 74.6861 73.8862C81.0296 81.8988 88.0281 86.9252 90.3177 85.113Z" stroke="#231F20" stroke-miterlimit="10"/>
<path d="M82.9766 73.8874C89.3201 65.8749 92.6065 57.9103 90.3169 56.098C88.0274 54.2858 81.0288 59.3122 74.6853 67.3248C68.3417 75.3373 65.0553 83.3019 67.3449 85.1142C69.6345 86.9264 76.633 81.9 82.9766 73.8874Z" stroke="#231F20" stroke-miterlimit="10"/>
<path d="M97.0006 74.0857C97.5487 71.218 89.8555 67.3384 79.8174 65.4203C69.7794 63.5022 61.1976 64.272 60.6495 67.1397C60.1014 70.0074 67.7946 73.8871 77.8326 75.8051C87.8707 77.7232 96.4525 76.9534 97.0006 74.0857Z" stroke="#231F20" stroke-miterlimit="10"/>
<path d="M67.3337 63.2634C68.3192 63.2634 69.1181 62.4645 69.1181 61.4791C69.1181 60.4938 68.3192 59.6949 67.3337 59.6949C66.3482 59.6949 65.5493 60.4938 65.5493 61.4791C65.5493 62.4645 66.3482 63.2634 67.3337 63.2634Z" fill="#008EFF"/>
<path d="M90.7293 62.206C91.7148 62.206 92.5137 61.4072 92.5137 60.4218C92.5137 59.4364 91.7148 58.6376 90.7293 58.6376C89.7438 58.6376 88.9449 59.4364 88.9449 60.4218C88.9449 61.4072 89.7438 62.206 90.7293 62.206Z" fill="#008EFF"/>
<path d="M84.5169 85.3346C85.5024 85.3346 86.3014 84.5358 86.3014 83.5504C86.3014 82.565 85.5024 81.7662 84.5169 81.7662C83.5314 81.7662 82.7325 82.565 82.7325 83.5504C82.7325 84.5358 83.5314 85.3346 84.5169 85.3346Z" fill="#008EFF"/>
<path d="M66.5406 74.1007C67.5261 74.1007 68.325 73.3019 68.325 72.3165C68.325 71.3312 67.5261 70.5323 66.5406 70.5323C65.5551 70.5323 64.7562 71.3312 64.7562 72.3165C64.7562 73.3019 65.5551 74.1007 66.5406 74.1007Z" fill="#008EFF"/>
<path d="M263.552 78.2638L269.038 82.493L284.965 61.7434L279.413 57.5142L263.552 78.2638Z" fill="#625656" stroke="#231F20" stroke-width="1.0595" stroke-miterlimit="10"/>
<path d="M285.148 61.1961L279.893 57.1675C279.62 56.9591 279.62 56.6118 279.757 56.334L281.736 53.6945C281.941 53.4167 282.282 53.4167 282.555 53.5556L287.81 57.5842C288.083 57.7926 288.083 58.1399 287.947 58.4177L285.967 61.0571C285.763 61.335 285.353 61.4044 285.148 61.1961Z" fill="#FFDCDC" stroke="#231F20" stroke-width="0.2669" stroke-miterlimit="10"/>
<path d="M263.846 79.5336L266.093 81.2517L267.878 82.5734L262.921 84.9523L262.855 85.0184L263.384 82.243L263.846 79.5336ZM263.251 78.0798C262.723 80.8553 262.26 83.6307 261.731 86.4061C264.243 85.1506 266.82 83.895 269.332 82.7055C267.349 81.1857 265.3 79.5997 263.251 78.0798Z" fill="#231F20"/>
<path d="M276.043 64.5189L264.94 79.0569" stroke="#231F20" stroke-width="0.7946" stroke-miterlimit="10"/>
<path d="M281.132 62.0739L266.658 80.9732" stroke="#090808" stroke-width="0.7946" stroke-miterlimit="10"/>
<path d="M279.48 62.206L265.601 80.2463" stroke="#090808" stroke-width="0.7946" stroke-miterlimit="10"/>
<path d="M280.537 64.9814L267.848 81.634" stroke="#090808" stroke-width="0.5297" stroke-miterlimit="10"/>
<path d="M262.627 83.8807L264.015 84.872L262.296 85.7971L262.627 83.8807Z" fill="#231F20"/>
<path d="M285.442 62.1438L278.944 57.1112L280.709 54.7387L287.279 59.6994L285.442 62.1438Z" fill="black"/>
<path d="M285.361 83.9468L279.48 88.0439L256.877 58.7698L262.759 54.6727L285.361 83.9468Z" fill="white" fill-opacity="0.98" stroke="#231F20" stroke-width="0.7967" stroke-miterlimit="10"/>
<path d="M260.38 60.2236L280.405 86.1936" stroke="#231F20" stroke-width="0.5821" stroke-miterlimit="10"/>
<path d="M261.702 57.316L263.684 55.9283" stroke="#231F20" stroke-width="0.4245" stroke-miterlimit="10"/>
<path d="M263.156 59.2324L265.138 57.8447" stroke="#231F20" stroke-width="0.4245" stroke-miterlimit="10"/>
<path d="M264.609 61.0827L266.592 59.6949" stroke="#231F20" stroke-width="0.4245" stroke-miterlimit="10"/>
<path d="M266.063 62.999L268.046 61.6113" stroke="#231F20" stroke-width="0.4245" stroke-miterlimit="10"/>
<path d="M267.517 64.8493L269.5 63.4616" stroke="#231F20" stroke-width="0.4245" stroke-miterlimit="10"/>
<path d="M268.971 66.7657L270.954 65.378" stroke="#231F20" stroke-width="0.4245" stroke-miterlimit="10"/>
<path d="M270.425 68.616L272.408 67.2283" stroke="#231F20" stroke-width="0.4245" stroke-miterlimit="10"/>
<path d="M271.879 70.5323L273.862 69.1446" stroke="#231F20" stroke-width="0.4245" stroke-miterlimit="10"/>
<path d="M273.333 72.3826L275.316 70.9949" stroke="#231F20" stroke-width="0.4245" stroke-miterlimit="10"/>
<path d="M274.787 74.299L276.77 72.9113" stroke="#231F20" stroke-width="0.4245" stroke-miterlimit="10"/>
<path d="M276.241 76.1493L278.224 74.7615" stroke="#231F20" stroke-width="0.4245" stroke-miterlimit="10"/>
<path d="M277.695 78.0656L279.678 76.6118" stroke="#231F20" stroke-width="0.4245" stroke-miterlimit="10"/>
<path d="M279.149 79.9159L281.132 78.5282" stroke="#231F20" stroke-width="0.4245" stroke-miterlimit="10"/>
<path d="M280.603 81.8323L282.586 80.3785" stroke="#231F20" stroke-width="0.4245" stroke-miterlimit="10"/>
<path d="M282.057 83.6826L284.04 82.2949" stroke="#231F20" stroke-width="0.4245" stroke-miterlimit="10"/>
<path d="M323.892 177.254H304.461C303.999 176.924 303.404 176.329 303.007 175.47C302.941 175.338 301.95 173.223 303.074 171.042C303.404 170.381 303.867 169.985 304.131 169.655H323.759C323.363 170.514 322.966 171.769 322.966 173.223C322.966 174.941 323.429 176.329 323.892 177.254Z" fill="#FFFBFB" stroke="#231F20" stroke-miterlimit="10"/>
<path d="M325.213 169.126C325.213 169.456 325.015 169.655 324.751 169.655C317.877 169.655 311.004 169.655 304.131 169.655C303.867 169.919 303.404 170.382 303.073 171.042C301.95 173.223 302.941 175.404 303.007 175.47C303.404 176.329 303.933 176.858 304.395 177.254H323.958C324.222 177.254 324.486 177.452 324.486 177.783V177.849C324.486 178.113 324.288 178.377 323.958 178.377H304.065C303.999 178.377 300.033 178.311 300.033 178.311C298.645 178.311 297.522 177.122 297.522 175.734V171.307C297.522 169.853 298.645 168.729 300.033 168.729C300.033 168.729 303.999 168.663 304.065 168.663H324.685C324.949 168.597 325.213 168.862 325.213 169.126Z" fill="#688CE9" stroke="#231F20" stroke-miterlimit="10"/>
<path d="M324.949 160.073H305.519C305.056 159.808 304.461 159.346 304.065 158.685C303.999 158.619 303.007 156.901 304.131 155.183C304.461 154.654 304.924 154.324 305.188 154.125H324.817C324.42 154.786 324.024 155.777 324.024 156.901C324.024 158.289 324.552 159.412 324.949 160.073Z" fill="white" stroke="#231F20" stroke-miterlimit="10"/>
<path d="M326.271 153.729C326.271 153.993 326.072 154.192 325.808 154.192C318.935 154.192 312.062 154.192 305.188 154.192C304.924 154.39 304.461 154.786 304.131 155.249C303.007 156.967 303.999 158.619 304.065 158.751C304.461 159.412 304.99 159.875 305.453 160.139H325.015C325.279 160.139 325.544 160.337 325.544 160.535V160.601C325.544 160.8 325.346 160.998 325.015 160.998H305.122C305.056 160.998 301.091 160.932 301.091 160.932C299.703 160.932 298.579 160.007 298.579 158.883V155.447C298.579 154.324 299.703 153.399 301.091 153.399C301.091 153.399 305.056 153.399 305.122 153.399H325.742C326.073 153.332 326.271 153.465 326.271 153.729Z" fill="#E6E968" stroke="#231F20" stroke-miterlimit="10"/>
<path d="M295.407 167.672H316.225C316.754 167.408 317.349 166.945 317.811 166.285C317.877 166.218 318.935 164.5 317.745 162.848C317.349 162.32 316.886 161.989 316.556 161.791H295.473C295.87 162.452 296.266 163.377 296.332 164.566C296.398 165.888 295.87 166.945 295.407 167.672Z" fill="white" stroke="#231F20" stroke-miterlimit="10"/>
<path d="M294.019 161.394C294.019 161.659 294.284 161.791 294.548 161.791C301.95 161.791 309.286 161.791 316.688 161.791C317.018 161.989 317.415 162.32 317.811 162.848C319.001 164.5 317.943 166.218 317.877 166.284C317.481 166.945 316.82 167.342 316.357 167.672H295.341C295.077 167.672 294.812 167.87 294.812 168.069V168.135C294.812 168.333 295.077 168.531 295.341 168.531H316.688C316.754 168.531 320.984 168.465 320.984 168.465C322.504 168.465 323.693 167.54 323.693 166.483V163.113C323.693 161.989 322.504 161.13 320.984 161.13C320.984 161.13 316.754 161.13 316.688 161.13H294.548C294.218 160.998 294.019 161.13 294.019 161.394Z" fill="#AA4747" stroke="#231F20" stroke-miterlimit="10"/>
<path d="M184.777 38.317C184.777 33.4269 180.812 29.5281 175.987 29.5281C171.163 29.5281 167.198 33.493 167.198 38.317C167.198 41.9515 169.445 45.1234 172.617 46.445V51.9959C172.617 53.1192 173.542 54.0444 174.666 54.0444H177.441C178.565 54.0444 179.49 53.1192 179.49 51.9959V46.445C182.596 45.1234 184.777 42.0175 184.777 38.317Z" fill="#FFF495" stroke="#231F20" stroke-miterlimit="10"/>
<path d="M176.252 55.4321H175.657C175.26 55.4321 174.864 55.1017 174.864 54.6391V54.2426C174.864 54.1105 174.996 54.0444 175.062 54.0444H176.78C176.913 54.0444 176.979 54.1765 176.979 54.2426V54.6391C176.979 55.1017 176.648 55.4321 176.252 55.4321Z" fill="#5B2A15" stroke="#231F20" stroke-width="0.3934" stroke-miterlimit="10"/>
<path d="M179.358 47.2379C179.358 48.1631 177.838 48.956 175.987 48.956C174.137 48.956 172.617 48.1631 172.617 47.2379C172.617 47.0397 172.683 46.9075 172.749 46.7093C173.08 47.304 174.401 47.7666 175.921 47.7666C177.508 47.7666 178.829 47.304 179.16 46.6432C179.292 46.8414 179.358 47.0397 179.358 47.2379Z" fill="#5B2A15" stroke="#231F20" stroke-width="0.6387" stroke-miterlimit="10"/>
<path d="M179.358 48.4935C179.358 49.4186 177.838 50.2116 175.987 50.2116C174.137 50.2116 172.617 49.4186 172.617 48.4935C172.617 48.2952 172.683 48.1631 172.749 47.9648C173.08 48.5596 174.401 49.0221 175.921 49.0221C177.508 49.0221 178.829 48.5596 179.16 47.8987C179.292 48.097 179.358 48.2952 179.358 48.4935Z" fill="#5B2A15" stroke="#231F20" stroke-width="0.6387" stroke-miterlimit="10"/>
<path d="M179.358 49.6829C179.358 50.6081 177.838 51.401 175.987 51.401C174.137 51.401 172.617 50.6081 172.617 49.6829C172.617 49.4847 172.683 49.3525 172.749 49.1543C173.08 49.749 174.401 50.2116 175.921 50.2116C177.508 50.2116 178.829 49.749 179.16 49.0882C179.292 49.2864 179.358 49.4847 179.358 49.6829Z" fill="#5B2A15" stroke="#231F20" stroke-width="0.6387" stroke-miterlimit="10"/>
<path d="M179.292 50.8724C179.292 51.7976 177.772 52.5906 175.921 52.5906C174.071 52.5906 172.551 51.7976 172.551 50.8724C172.551 50.6742 172.617 50.542 172.683 50.3438C173.013 50.9385 174.335 51.4011 175.855 51.4011C177.441 51.4011 178.763 50.9385 179.094 50.2777C179.226 50.476 179.292 50.6742 179.292 50.8724Z" fill="#5B2A15" stroke="#231F20" stroke-width="0.6387" stroke-miterlimit="10"/>
<path d="M179.292 52.2601C179.292 53.1853 177.772 53.9783 175.921 53.9783C174.071 53.9783 172.551 53.1853 172.551 52.2601C172.551 52.0619 172.617 51.9297 172.683 51.7315C173.013 52.3262 174.335 52.7888 175.855 52.7888C177.441 52.7888 178.763 52.3262 179.094 51.6654C179.226 51.8636 179.292 52.0619 179.292 52.2601Z" fill="#5B2A15" stroke="#231F20" stroke-width="0.6387" stroke-miterlimit="10"/>
<path d="M174.533 47.5684C174.533 47.5684 174.864 44.7269 174.203 43.0748C173.608 41.4228 171.692 41.8854 171.427 39.5064C171.163 37.1275 173.079 36.4667 174.005 37.1275C174.93 37.7883 174.666 39.176 174.401 39.1099C174.071 39.0439 174.401 37.9205 174.467 37.7883C174.798 36.8632 175.657 36.4667 176.582 36.7971C176.979 36.9293 177.375 37.2597 177.574 37.7222C177.706 37.9866 177.772 39.0439 177.309 39.0439C176.847 39.1099 177.177 36.7971 178.499 36.8632C179.754 36.9293 180.548 38.317 180.283 39.4404C180.085 40.4977 179.358 41.0924 178.433 41.8193C176.979 42.9427 177.706 47.6345 177.375 47.5684" fill="white"/>
<path d="M174.533 47.5684C174.533 47.5684 174.864 44.7269 174.203 43.0748C173.608 41.4228 171.692 41.8854 171.427 39.5064C171.163 37.1275 173.079 36.4667 174.005 37.1275C174.93 37.7883 174.666 39.176 174.401 39.1099C174.071 39.0439 174.401 37.9205 174.467 37.7883C174.798 36.8632 175.657 36.4667 176.582 36.7971C176.979 36.9293 177.375 37.2597 177.574 37.7222C177.706 37.9866 177.772 39.0439 177.309 39.0439C176.847 39.1099 177.177 36.7971 178.499 36.8632C179.754 36.9293 180.548 38.317 180.283 39.4404C180.085 40.4977 179.358 41.0924 178.433 41.8193C176.979 42.9427 177.706 47.6345 177.375 47.5684" stroke="black" stroke-width="0.25" stroke-miterlimit="10"/>
<path d="M186.363 40.6959L190.99 43.8018" stroke="black" stroke-width="0.75" stroke-miterlimit="10"/>
<path d="M187.421 36.5988H192.774" stroke="black" stroke-width="0.75" stroke-miterlimit="10"/>
<path d="M186.165 31.841L190.857 28.9995" stroke="black" stroke-width="0.75" stroke-miterlimit="10"/>
<path d="M182.2 27.2153L184.579 22.8539" stroke="black" stroke-width="0.75" stroke-miterlimit="10"/>
<path d="M176.186 26.7527L175.921 21.9288" stroke="black" stroke-width="0.75" stroke-miterlimit="10"/>
<path d="M165.347 42.8766L161.051 46.5111" stroke="black" stroke-width="0.75" stroke-miterlimit="10"/>
<path d="M163.761 38.9117L158.474 39.5726" stroke="black" stroke-width="0.75" stroke-miterlimit="10"/>
<path d="M164.488 34.0878L159.465 31.841" stroke="black" stroke-width="0.75" stroke-miterlimit="10"/>
<path d="M167.462 30.1228L163.1 26.5544" stroke="black" stroke-width="0.75" stroke-miterlimit="10"/>
<path d="M170.899 27.3475L168.784 22.9861" stroke="black" stroke-width="0.75" stroke-miterlimit="10"/>
<path d="M53.8516 161.196C58.8082 166.681 58.4117 175.139 52.9263 180.096C47.4409 185.052 38.9815 184.655 34.0249 179.17C29.9934 174.743 29.5308 168.267 32.4387 163.377L25.8959 156.174C25.8959 156.174 25.8959 156.174 25.8959 156.108C25.7637 156.042 25.6316 155.976 25.5655 155.91C24.9046 155.183 25.6976 153.399 27.3499 151.879C29.0021 150.359 30.8526 149.764 31.5135 150.491C31.5796 150.623 31.6457 150.755 31.7117 150.888C31.7117 150.888 31.7778 150.888 31.7778 150.954L38.3206 158.156C43.4095 155.645 49.754 156.769 53.8516 161.196Z" fill="#FDFDFD" stroke="#231F20" stroke-width="1.0026" stroke-miterlimit="10"/>
<path d="M29.5662 154.362C31.6747 152.45 32.5887 150.023 31.6078 148.941C30.6268 147.86 28.1223 148.534 26.0138 150.447C23.9053 152.36 22.9913 154.787 23.9723 155.868C24.9532 156.949 27.4577 156.275 29.5662 154.362Z" fill="white" stroke="#231F20" stroke-width="0.6029" stroke-miterlimit="10"/>
<path d="M28.584 153.284C30.5573 151.494 31.5805 149.407 30.8693 148.623C30.1581 147.84 27.9818 148.655 26.0085 150.445C24.0352 152.235 23.012 154.322 23.7232 155.106C24.4344 155.89 26.6107 155.074 28.584 153.284Z" fill="#E7F0FF" stroke="#231F20" stroke-width="0.4896" stroke-miterlimit="10"/>
<path d="M54.6446 165.756C55.1733 166.879 55.7681 168.531 55.6359 170.58C55.3055 175.734 50.6131 181.946 43.6738 181.748C37.131 181.615 31.7117 175.866 32.2404 169.192" fill="#95A1F2"/>
<path d="M54.6446 165.756C55.1733 166.879 55.7681 168.531 55.6359 170.58C55.3055 175.734 50.6131 181.946 43.6738 181.748C37.131 181.615 31.7117 175.866 32.2404 169.192" stroke="#231F20" stroke-width="0.5514" stroke-miterlimit="10"/>
<path d="M43.9816 169.568C50.2918 168.576 55.2648 166.866 55.0891 165.748C54.9133 164.63 49.6555 164.528 43.3453 165.52C37.035 166.512 32.0621 168.222 32.2378 169.34C32.4135 170.457 37.6714 170.559 43.9816 169.568Z" fill="#95A1F2" stroke="#231F20" stroke-width="0.5759" stroke-miterlimit="10"/>
<path d="M42.947 175.205C43.458 175.205 43.8722 174.791 43.8722 174.28C43.8722 173.769 43.458 173.355 42.947 173.355C42.436 173.355 42.0217 173.769 42.0217 174.28C42.0217 174.791 42.436 175.205 42.947 175.205Z" fill="#F7F7F7" stroke="#3D3594" stroke-miterlimit="10"/>
<path d="M44.7974 168.135C45.1624 168.135 45.4583 167.839 45.4583 167.474C45.4583 167.109 45.1624 166.813 44.7974 166.813C44.4324 166.813 44.1365 167.109 44.1365 167.474C44.1365 167.839 44.4324 168.135 44.7974 168.135Z" fill="#F7F7F7" stroke="#3D3594" stroke-miterlimit="10"/>
<path d="M37.3955 163.575C37.9065 163.575 38.3207 163.161 38.3207 162.65C38.3207 162.139 37.9065 161.725 37.3955 161.725C36.8845 161.725 36.4702 162.139 36.4702 162.65C36.4702 163.161 36.8845 163.575 37.3955 163.575Z" fill="#F7F7F7" stroke="#3D3594" stroke-miterlimit="10"/>
<path d="M48.961 176.065C49.91 176.065 50.6793 175.295 50.6793 174.346C50.6793 173.398 49.91 172.628 48.961 172.628C48.012 172.628 47.2427 173.398 47.2427 174.346C47.2427 175.295 48.012 176.065 48.961 176.065Z" fill="#F7F7F7" stroke="#3D3594" stroke-miterlimit="10"/>
<path d="M36.7346 175.073C37.4646 175.073 38.0563 174.482 38.0563 173.752C38.0563 173.022 37.4646 172.43 36.7346 172.43C36.0046 172.43 35.4128 173.022 35.4128 173.752C35.4128 174.482 36.0046 175.073 36.7346 175.073Z" fill="#F7F7F7" stroke="#3D3594" stroke-miterlimit="10"/>
<path d="M44.2874 157.973C47.3348 158.103 50.3175 159.404 52.522 161.875C56.9311 166.754 56.5421 174.299 51.6791 178.722C49.8636 180.413 47.659 181.389 45.3896 181.714" stroke="#31475D" stroke-miterlimit="10"/>
<mask id="mask0_1062_1391" style="mask-type:alpha" maskUnits="userSpaceOnUse" x="95" y="64" width="158" height="165">
<ellipse cx="173.695" cy="146.438" rx="78.6954" ry="82.4382" fill="#D9D9D9"/>
</mask>
<g mask="url(#mask0_1062_1391)">
<ellipse cx="180.658" cy="162.064" rx="59.6575" ry="60.0643" fill="#B8D9F2"/>
<g filter="url(#filter1_d_1062_1391)">
<path d="M169.315 92.4705C169.315 92.4705 218.647 66.2108 212.628 128.759C212.628 128.759 207.947 145.61 215.252 153.261C222.557 160.911 229.707 162.72 228.73 170.371C227.752 178.021 221.322 179.831 221.682 183.656C222.042 187.481 223.02 191.771 219.316 193.219C215.663 194.718 160.775 192.34 160.775 192.34C160.775 192.34 141.639 185.258 144.674 172.283C147.709 159.309 155.374 146.024 153.316 135.272C151.258 124.468 142.205 90.5579 169.315 92.4705Z" fill="#404041"/>
<path d="M204.243 132.584C206.61 129.017 210.365 127.621 212.628 128.758C215.509 130.206 215.458 135.478 213.812 138.632C212.268 141.682 209.13 142.87 207.947 143.336C205.787 144.163 203.883 144.266 202.649 144.214L204.243 132.584Z" fill="#FFCCA5"/>
<path d="M160.621 132.584C158.255 129.017 154.499 127.621 152.236 128.758C149.355 130.206 149.407 135.478 151.053 138.632C152.596 141.682 155.734 142.87 156.917 143.336C159.078 144.163 160.981 144.266 162.216 144.214L160.621 132.584Z" fill="#FFCCA5"/>
<path d="M153.573 137.184C153.213 136.616 152.956 135.944 152.853 135.22C152.802 134.496 152.956 133.669 153.573 133.049C153.882 132.739 154.294 132.584 154.654 132.48C155.065 132.377 155.425 132.377 155.837 132.429C156.197 132.48 156.557 132.532 156.917 132.635C157.071 132.687 157.277 132.739 157.431 132.791L157.946 133.049C159.283 133.773 160.209 134.962 160.878 136.202C161.547 137.443 161.958 138.787 162.164 140.131C161.547 138.89 160.93 137.701 160.158 136.616C159.386 135.53 158.512 134.548 157.431 133.979L157.02 133.773C156.866 133.721 156.711 133.669 156.608 133.618C156.351 133.514 155.991 133.463 155.734 133.411C155.117 133.307 154.551 133.359 154.139 133.669C153.728 133.979 153.47 134.548 153.419 135.168C153.316 135.84 153.419 136.512 153.573 137.184Z" fill="#E4A16D"/>
<path d="M212.423 136.047C212.577 135.375 212.68 134.703 212.577 134.083C212.526 133.463 212.268 132.842 211.857 132.584C211.445 132.274 210.879 132.222 210.262 132.325C209.953 132.377 209.645 132.429 209.388 132.532C209.233 132.584 209.079 132.635 208.976 132.687L208.565 132.894C207.484 133.463 206.61 134.445 205.838 135.53C205.067 136.616 204.449 137.805 203.832 139.045C203.986 137.701 204.449 136.357 205.118 135.117C205.787 133.876 206.713 132.739 208.05 131.963L208.565 131.705C208.719 131.602 208.925 131.602 209.079 131.55C209.439 131.447 209.799 131.395 210.159 131.343C210.519 131.291 210.931 131.343 211.342 131.395C211.754 131.447 212.114 131.653 212.423 131.963C213.04 132.584 213.194 133.411 213.143 134.135C213.04 134.755 212.783 135.427 212.423 136.047Z" fill="#E4A16D"/>
<path d="M175.025 162.514C175.025 162.514 175.539 168.923 174.459 173.007C173.378 177.039 173.636 177.97 172.092 178.9C170.549 179.882 166.794 180.089 166.794 180.089L166.485 189.238L180.58 205.315L185.879 209.14L198.379 198.078L201.003 183.501C200.334 183.552 199.151 183.501 197.968 182.932C196.887 182.415 196.064 181.588 195.293 180.244C193.492 177.246 193.081 173.886 192.926 171.818C192.72 169.078 192.618 165.253 193.235 160.601L175.025 162.514Z" fill="#FFCCA5"/>
<path d="M159.901 129.224C159.901 129.224 158.718 142.095 167.308 156.414C169.212 159.619 171.629 161.738 171.629 161.738C172.247 162.307 172.864 162.824 173.636 163.289C179.243 167.114 187.216 166.494 192.823 162.927C198.225 159.515 200.591 154.656 202.443 150.418C203.883 147.161 207.536 139.2 205.735 129.12C204.295 121.056 200.282 116.456 192.515 107.565C187.885 102.292 182.895 96.6576 178.728 97.8465C176.208 98.5702 174.716 101.517 170.241 102.137C168.183 102.395 168.08 101.879 167 102.292C162.164 104.205 162.164 116.973 162.164 118.679C162.113 123.227 159.901 122.349 159.901 129.224Z" fill="#FFE0C8"/>
<path d="M170.343 104.566C170.343 104.566 173.841 98.5702 179.757 101.051C185.673 103.533 189.068 107.461 190.457 110.356C191.846 113.251 199.922 130.516 205.735 129.12C207.227 128.758 211.754 127.621 212.063 126.587C212.063 126.587 207.381 127.259 205.581 126.019C203.832 124.778 195.138 73.1375 169.623 100.948L170.343 104.566Z" fill="#58595B"/>
<path d="M157.586 130.981C157.586 130.981 161.238 131.188 162.267 126.277C163.296 121.315 164.119 100.638 170.343 104.618L169.623 100.948C169.623 100.948 162.576 98.3117 160.981 111.545C159.386 124.778 160.569 129.379 156.454 129.12C152.339 128.862 157.586 130.981 157.586 130.981Z" fill="#58595B"/>
<path d="M194.161 135.117C194.843 135.117 195.395 133.89 195.395 132.377C195.395 130.864 194.843 129.637 194.161 129.637C193.479 129.637 192.926 130.864 192.926 132.377C192.926 133.89 193.479 135.117 194.161 135.117Z" fill="#231F20"/>
<path d="M171.527 135.117C172.208 135.117 172.761 133.89 172.761 132.377C172.761 130.864 172.208 129.637 171.527 129.637C170.845 129.637 170.292 130.864 170.292 132.377C170.292 133.89 170.845 135.117 171.527 135.117Z" fill="#231F20"/>
<path d="M173.533 126.898C172.35 127.001 171.372 127.156 170.549 127.621C170.138 127.828 169.726 128.087 169.366 128.448C169.006 128.81 168.646 129.172 168.286 129.689C168.234 129.069 168.389 128.448 168.697 127.931C169.006 127.415 169.52 126.949 170.086 126.639C170.652 126.329 171.321 126.226 171.887 126.277C172.453 126.329 173.07 126.484 173.533 126.898Z" fill="#231F20"/>
<path d="M183.77 126.536C184.541 129.017 185.159 131.498 185.93 133.876C186.136 134.496 186.342 135.065 186.496 135.634C186.702 136.202 186.908 136.823 187.113 137.391L187.731 139.149C187.936 139.769 188.194 140.389 188.399 141.113C188.554 141.837 188.708 142.612 188.605 143.439C188.554 144.266 188.297 145.145 187.834 145.869C187.371 146.592 186.805 147.161 186.136 147.626C185.467 148.091 184.696 148.402 183.924 148.505C183.152 148.608 182.278 148.557 181.558 148.35C180.786 148.091 180.169 147.678 179.603 147.161C178.523 146.127 177.957 144.68 178.06 143.387L178.214 143.336C178.471 144.576 179.14 145.714 180.117 146.489C181.095 147.264 182.432 147.575 183.615 147.264C184.799 147.006 185.879 146.179 186.548 145.145C187.165 144.059 187.165 142.767 186.805 141.527C186.496 140.286 185.982 139.097 185.622 137.908C185.262 136.667 184.901 135.427 184.644 134.186C184.078 131.705 183.77 129.12 183.615 126.587L183.77 126.536Z" fill="#231F20"/>
<path d="M174.973 145.403C175.282 145.714 175.385 146.024 175.539 146.282C175.693 146.592 175.796 146.851 175.951 147.161C176.208 147.73 176.465 148.247 176.722 148.763C177.237 149.746 177.802 150.573 178.471 151.09C179.14 151.607 179.963 152.02 181.043 152.227C182.124 152.434 183.307 152.537 184.696 152.692L184.747 152.847C183.564 153.261 182.329 153.519 181.043 153.519C179.809 153.519 178.471 153.157 177.442 152.33C176.465 151.503 175.848 150.314 175.488 149.074C175.282 148.453 175.179 147.833 175.076 147.213L174.973 146.282C174.922 145.972 174.922 145.662 174.819 145.403H174.973Z" fill="#231F20"/>
<path d="M164.788 123.951C165.148 123.124 165.662 122.452 166.228 121.78C166.537 121.47 166.845 121.16 167.205 120.85L167.72 120.436L168.286 120.074C168.646 119.816 169.057 119.557 169.469 119.35C169.675 119.247 169.88 119.144 170.086 119.092C170.292 119.04 170.549 118.989 170.755 118.989C171.681 118.989 172.607 119.247 173.43 120.022V120.333C173.018 120.798 172.658 121.056 172.298 121.263C171.938 121.522 171.629 121.677 171.269 121.832C170.961 121.987 170.601 122.038 170.241 122.09C169.88 122.09 169.52 122.142 169.16 122.194L168.646 122.349L168.131 122.504C167.771 122.607 167.411 122.762 167.051 122.917C166.331 123.227 165.662 123.589 164.993 124.054L164.788 123.951Z" fill="#231F20"/>
<path d="M191.795 126.898C192.258 126.484 192.875 126.329 193.441 126.277C194.058 126.226 194.675 126.329 195.241 126.639C195.807 126.949 196.321 127.363 196.63 127.931C196.939 128.448 197.093 129.069 197.042 129.689C196.682 129.224 196.321 128.81 195.961 128.448C195.601 128.087 195.19 127.828 194.778 127.621C193.955 127.156 192.978 127.001 191.795 126.898Z" fill="#231F20"/>
<path d="M200.9 124.106C200.231 123.641 199.562 123.227 198.842 122.969C198.482 122.814 198.122 122.659 197.762 122.555L197.247 122.4L196.733 122.245C196.373 122.142 196.013 122.142 195.653 122.142C195.293 122.142 194.932 122.038 194.624 121.883C194.315 121.728 193.955 121.573 193.595 121.315C193.235 121.056 192.875 120.798 192.463 120.384V120.074C193.286 119.299 194.212 119.04 195.138 119.04C195.344 119.04 195.601 119.04 195.807 119.144C196.013 119.195 196.218 119.299 196.424 119.402C196.836 119.609 197.196 119.919 197.607 120.126L198.173 120.488L198.688 120.901C199.048 121.211 199.356 121.522 199.665 121.832C200.231 122.504 200.745 123.176 201.105 124.003L200.9 124.106Z" fill="#231F20"/>
<path d="M168.337 181.795C169.469 182.984 171.938 185.206 175.796 186.292C178.471 187.067 180.786 187.016 182.278 186.861C182.844 191.203 183.461 195.493 184.027 199.835C184.233 195.39 184.438 190.944 184.593 186.447C186.136 186.809 188.657 187.222 191.434 186.447C196.013 185.206 197.402 182.053 199.254 182.312C201.003 182.57 203.112 186.085 203.935 201.593L201.003 231.885L168.543 234.418L164.068 200.197C165.456 194.098 166.897 187.946 168.337 181.795Z" fill="#F08707"/>
<path d="M115.281 186.253L121.793 203.689L132.972 195.684L126.022 181.801L115.281 186.253Z" fill="#FFCCA5"/>
<path d="M125.27 183.979C125.27 183.979 127.4 180.378 127.813 176.335C128.226 172.292 126.31 161.555 126.31 161.555C126.139 161.4 125.693 160.963 125.243 161.083C124.792 161.202 124.578 161.785 124.459 162.33C123.752 164.768 123.558 166.396 123.558 166.396C123.218 169.635 123.112 169.787 122.968 169.843C122.153 170.159 120.044 167.152 118.633 164.095C116.197 158.83 116.137 154.139 114.78 154.056C114.503 154.053 114.252 154.261 114.205 154.279C113.627 154.781 114.011 155.908 114.538 158.254C114.954 160.034 115.419 161.794 115.884 163.555C116.05 164.267 116.332 164.989 116.384 165.69C116.363 165.92 116.246 166.187 116.035 166.214C115.94 166.251 115.806 166.192 115.74 166.162C115.454 165.996 115.323 165.659 115.256 165.629C114.945 164.973 112.416 156.916 111.63 155.89C111.526 155.764 111.27 155.531 110.899 155.287C110.528 155.043 110.384 155.099 110.336 155.117C110.029 155.181 109.921 155.611 109.938 155.938C109.96 156.705 110.156 157.35 110.194 157.447C110.74 158.566 111.027 159.729 111.477 160.886C111.646 161.319 112.105 162.639 112.992 165.344C113.105 165.633 113.459 166.827 113.005 167.503C112.975 167.569 112.821 167.74 112.659 167.748C112.496 167.756 112.296 167.667 111.919 166.982C111.194 165.544 109.285 160.074 108.516 158.099C108.253 157.424 107.793 156.383 107.172 156.347C106.894 156.344 106.625 156.504 106.49 156.723C106.046 157.284 106.477 158.392 106.75 158.951C107.971 161.805 108.809 164.807 109.934 167.697C109.972 167.794 110.178 168.324 110.097 168.966C110.076 169.195 109.997 169.559 109.757 169.652C109.517 169.745 109.194 169.483 109.042 169.375C107.541 168.073 105.787 161.156 105.787 161.156C105.723 160.848 105.527 160.203 104.974 159.919C104.689 159.752 104.382 159.816 104.239 159.872C103.471 160.17 104.405 164.411 105.803 170.412C105.932 171.028 110.258 185.542 115.858 187.027C121.555 188.473 125.27 183.979 125.27 183.979Z" fill="#FFE0C8"/>
<path d="M195.14 177C192.094 194.121 189.047 211.303 186 228.424L190.864 240L229.724 239.756L234 219.833C233.465 214.897 231.755 205.271 225.448 195.949C224.111 193.938 222.989 192.598 222.668 192.293C218.98 188.272 214.918 186.931 213.047 186.261C209.091 184.799 203.372 182.24 195.14 177Z" fill="#F5F5F5"/>
<path d="M171.629 177.866L183.564 233.125L114.118 230.747C113.963 219.013 113.86 207.279 113.706 195.545C114.375 193.891 114.992 192.288 115.661 190.634C122.708 187.016 129.756 183.449 136.803 179.831C137.729 181.278 138.707 183.087 139.53 185.362C140.764 188.773 141.176 191.771 141.279 193.994C141.845 190.169 142.873 187.223 144.417 185.93C147.297 183.449 171.629 177.866 171.629 177.866Z" fill="#F5F5F5"/>
<path d="M164.222 183.552C163.399 186.292 162.473 189.083 161.547 191.771C160.621 194.511 159.695 197.251 158.872 199.939C158.666 200.611 158.46 201.283 158.255 202.007C158.152 202.317 158.1 202.679 157.997 202.989C157.997 203.144 157.946 203.247 157.946 203.351C157.946 203.351 157.946 203.351 157.946 203.299V203.247C157.946 203.247 157.946 203.195 157.894 203.195C157.894 203.195 157.946 203.195 157.946 203.247L158.1 203.299L158.306 203.351L158.512 203.402C158.82 203.454 159.129 203.454 159.489 203.506C160.158 203.557 160.878 203.506 161.598 203.557C163.039 203.609 164.53 203.609 166.022 203.867C166.794 204.023 167.514 204.229 168.286 204.591C169.006 204.953 169.726 205.573 170.138 206.4L170.343 206.814L170.035 207.176C169.16 208.158 168.337 209.14 167.463 210.174C166.64 211.208 165.817 212.19 164.993 213.224C164.222 214.258 163.399 215.343 162.679 216.429L162.164 217.256L161.65 218.083C161.495 218.393 161.341 218.651 161.187 218.962C161.032 219.272 160.93 219.582 160.827 219.892C161.032 218.6 161.598 217.307 162.216 216.17C162.833 214.981 163.502 213.844 164.222 212.707C164.942 211.57 165.714 210.484 166.485 209.399C167.257 208.313 168.08 207.279 168.903 206.245L168.8 207.021C168.543 206.555 168.131 206.194 167.566 205.935C167 205.677 166.382 205.522 165.714 205.418C164.376 205.211 162.987 205.16 161.547 205.16C160.827 205.16 160.106 205.16 159.386 205.108C159.026 205.108 158.615 205.056 158.203 205.005L157.894 204.953L157.586 204.85C157.483 204.798 157.329 204.746 157.226 204.695C157.071 204.591 156.969 204.539 156.814 204.436C156.763 204.384 156.66 204.281 156.608 204.229C156.557 204.126 156.506 204.023 156.454 203.971C156.403 203.867 156.351 203.764 156.351 203.661C156.351 203.557 156.3 203.454 156.3 203.351C156.351 203.144 156.351 202.885 156.403 202.679C156.506 202.317 156.608 201.955 156.711 201.593C156.917 200.869 157.174 200.197 157.38 199.525C158.357 196.786 159.438 194.098 160.569 191.461C161.753 188.773 162.936 186.189 164.222 183.552Z" fill="#404040"/>
<path d="M204.706 186.344C205.427 187.636 206.095 188.928 206.713 190.272C207.381 191.565 207.947 192.909 208.565 194.253C209.13 195.597 209.696 196.941 210.211 198.388C210.468 199.112 210.725 199.784 210.879 200.507L211.034 201.076L211.137 201.645C211.24 202.007 211.24 202.472 211.291 202.885L211.342 203.506L210.674 203.661C209.696 203.919 208.667 204.229 207.69 204.643C206.713 205.056 205.735 205.522 204.809 206.039C203.883 206.555 203.009 207.176 202.186 207.796C201.363 208.416 200.591 209.192 199.922 209.967L200.025 209.243L201.26 212.087C201.671 213.017 202.031 213.999 202.443 214.93C202.855 215.86 203.215 216.842 203.575 217.824C203.935 218.807 204.295 219.737 204.655 220.719C204.141 219.84 203.626 218.91 203.112 218.031C202.597 217.101 202.083 216.222 201.62 215.291C201.157 214.361 200.643 213.482 200.18 212.552L198.739 209.812L198.533 209.45L198.791 209.088C199.511 208.21 200.282 207.331 201.157 206.555C202.031 205.78 202.957 205.16 203.986 204.591C204.964 204.023 205.992 203.506 207.073 203.092C208.153 202.679 209.182 202.317 210.365 202.058L209.748 202.834C209.696 202.523 209.696 202.265 209.645 201.903L209.542 201.386L209.439 200.869C209.285 200.197 209.079 199.474 208.873 198.802C208.462 197.406 207.999 196.01 207.536 194.666L206.095 190.531C205.632 189.135 205.169 187.739 204.706 186.344Z" fill="#404040"/>
<path d="M145.651 187.067C146.526 187.998 147.349 189.032 148.069 190.117C148.789 191.203 149.458 192.34 150.075 193.477C150.693 194.666 151.258 195.855 151.619 197.096C151.927 198.388 152.133 199.68 152.082 201.024H151.979C151.464 199.784 151.001 198.595 150.59 197.406C150.127 196.217 149.818 194.976 149.304 193.787C148.841 192.599 148.275 191.461 147.606 190.324C146.989 189.187 146.269 188.101 145.548 187.067H145.651Z" fill="#404040"/>
<path d="M222.968 196.992C222.402 197.975 221.888 198.905 221.374 199.887L219.779 202.782C219.264 203.764 218.904 204.798 218.236 205.677C217.618 206.555 216.95 207.434 216.126 208.261L215.972 208.21C215.972 207.589 216.075 207.021 216.229 206.504C216.384 205.935 216.589 205.418 216.795 204.901C217.258 203.867 217.978 203.04 218.647 202.11C219.316 201.231 219.985 200.352 220.653 199.474C221.374 198.647 222.042 197.768 222.814 196.941L222.968 196.992Z" fill="#404040"/>
<path d="M136.803 180.059C138.09 182.489 139.221 185.022 140.353 187.555C140.919 188.795 141.433 190.088 141.948 191.38L143.439 195.205L144.88 199.082C145.343 200.375 145.806 201.667 146.217 203.011C147.092 205.647 147.915 208.283 148.532 210.971C147.246 208.542 146.114 206.009 144.983 203.476C144.417 202.235 143.902 200.943 143.388 199.651L141.896 195.826L140.456 191.949C139.993 190.656 139.53 189.364 139.118 188.02C138.295 185.384 137.472 182.747 136.803 180.059Z" fill="#404040"/>
</g>
</g>
<defs>
<filter id="filter0_d_1062_1391" x="11.9999" y="11" width="325.242" height="212" filterUnits="userSpaceOnUse" color-interpolation-filters="sRGB">
<feFlood flood-opacity="0" result="BackgroundImageFix"/>
<feColorMatrix in="SourceAlpha" type="matrix" values="0 0 0 0 0 0 0 0 0 0 0 0 0 0 0 0 0 0 127 0" result="hardAlpha"/>
<feOffset dx="-2" dy="2"/>
<feComposite in2="hardAlpha" operator="out"/>
<feColorMatrix type="matrix" values="0 0 0 0 0.580689 0 0 0 0 0.735042 0 0 0 0 0.854315 0 0 0 1 0"/>
<feBlend mode="multiply" in2="BackgroundImageFix" result="effect1_dropShadow_1062_1391"/>
<feBlend mode="normal" in="SourceGraphic" in2="effect1_dropShadow_1062_1391" result="shape"/>
</filter>
<filter id="filter1_d_1062_1391" x="103.963" y="86" width="134.037" height="157" filterUnits="userSpaceOnUse" color-interpolation-filters="sRGB">
<feFlood flood-opacity="0" result="BackgroundImageFix"/>
<feColorMatrix in="SourceAlpha" type="matrix" values="0 0 0 0 0 0 0 0 0 0 0 0 0 0 0 0 0 0 127 0" result="hardAlpha"/>
<feOffset dx="2" dy="1"/>
<feGaussianBlur stdDeviation="1"/>
<feComposite in2="hardAlpha" operator="out"/>
<feColorMatrix type="matrix" values="0 0 0 0 0.63975 0 0 0 0 0.767838 0 0 0 0 0.866815 0 0 0 0.57 0"/>
<feBlend mode="multiply" in2="BackgroundImageFix" result="effect1_dropShadow_1062_1391"/>
<feBlend mode="normal" in="SourceGraphic" in2="effect1_dropShadow_1062_1391" result="shape"/>
</filter>
</defs>
</svg>
